<svg width="32" height="32" viewBox="0 0 32 32" fill="none" xmlns="http://www.w3.org/2000/svg">
<path fill-rule="evenodd" clip-rule="evenodd" d="M32 30.1727L30.1705 32L20.6473 22.5255C18.477 24.2752 15.6953 25.3416 12.6859 25.3416C5.67634 25.3416 0 19.6719 0 12.6705C0 5.66968 5.67634 0 12.6859 0C19.695 0 25.3713 5.66968 25.3713 12.6705C25.3713 15.7144 24.3042 18.4929 22.5144 20.6987L32 30.1727ZM12.6478 1.37125C6.40061 1.37125 1.29566 6.43267 1.29566 12.7106C1.29566 18.9505 6.36252 24.0495 12.6478 24.0495C18.8956 24.0495 24.0005 18.9886 24.0005 12.7106C24.0005 6.43267 18.9331 1.37125 12.6478 1.37125Z" fill="#D3DDE0"/>
</svg>
